# xmcd
#
# Track frame offsets:
#	150
#	16827
#	30835
#	44482
#	60265
#	72510
#	88067
#	103052
#	115735
#	130485
#	140610
#	150042
#	163097
#	177220
#	189025
#	202512
#	215422
#	229577
#
# Disc length: 3242 seconds
#
# Revision: 0
# Processed by: cddbd v1.5.2PL0 Copyright (c) Steve Scherf et al.
# Submitted via: EasyCDDAExtractor 16.0.6.1
#
DISCID=de0ca812
DTITLE=Συλλογικός δίσκος - Τραγούδια και σκοποί διάφορες περιοχές Ελλάδας 1
DYEAR=1996
DGENRE=Παραδοσιακή
TTITLE0=Σαμίου Δόμνα - Σμυρνέϊκος μπάλος
TTITLE1=Αηδονίδης Χρόνης - Άνοιξε Λενιώ την πόρτα [αντικριστός Θράκης]
TTITLE2=Καρζή Αμαλία - Σε κακό σκαλί ανέβαινα [καλαματιανό Πελοποννήσου]
TTITLE3=Παπαθανασίου Λάμπρος - Πού 'σουν πέρδικα καημένη [τσάμικο στεριανό]
TTITLE4=Άνευ ερμηνευτού - Ροδίτικος ίσος χορός [ορχηστρικό]
TTITLE5=Αηδονίδης Χρόνης - Νά 'μαν πουλί να πέταγα [καθιστό Θράκης]
TTITLE6=Σαμίου Δόμνα - Άνω Μερά καλό χωριό [συρτός]
TTITLE7=Χριστοδουλάκη-Παπαστεφάνου Αμαλία - Καστελοριζιανή σούστα
TTITLE8=Μπαϊρακτάρης Χρήστος - Ρασία σκίζω κι έρχομαι [χορός τικ Πόντου]
TTITLE9=Άνευ ερμηνευτού - Κυπριώτικη σούστα [ορχηστρικό]
TTITLE10=Χριστοδουλάκη-Παπαστεφάνου Αμαλία - Πέρα στους πέρα κάμπους [χορός ζε
TTITLE10=ρβός δωδεκανησιακός]
TTITLE11=Ακριβός Κώστας - Αγορούσα από σέρη [θεσσαλικό της νύφης στα τρία]
TTITLE12=Παπαθανασίου Λάμπρος - Βαστάτε τούρκοι τ' άλογα [κλέφτικο Ρούμελης]
TTITLE13=Άνευ ερμηνευτού - Καλαφάτικο συρτό [ορχηστρ., συρτό Ύδρας]
TTITLE14=Παπαθανασίου Λάμπρος - Στό 'πα και στο παρήγγειλα [τσάμικο Ρούμελης]
TTITLE15=Χριστοδουλάκη-Παπαστεφάνου Αμαλία - Κάτω χορός
TTITLE16=Αηδονίδης Χρόνης - Θρακιώτισσα [συγκαθιστό Θράκης]
TTITLE17=Άνευ ερμηνευτού - Τηλιακή σούστα [ορχηστρικό]
EXTD=
EXTT0=
EXTT1=
EXTT2=
EXTT3=
EXTT4=
EXTT5=
EXTT6=
EXTT7=
EXTT8=
EXTT9=
EXTT10=
EXTT11=
EXTT12=
EXTT13=
EXTT14=
EXTT15=
EXTT16=
EXTT17=
PLAYORDER=
